<svg width="1200" height="1200" xmlns="http://www.w3.org/2000/svg" version="1.1">
 <g>
  <title>Layer 1</title>
  <g id="svg_1" stroke="null">
   <path d="m649.99999,850l-100,0l0,-100l100,0l0,100z" id="svg_2" stroke="null" fill="#444444"/>
   <path d="m599.99999,200c220,0 400,180 400,400s-180,400 -400,400s-400,-180 -400,-400s180,-400 400,-400m0,-100c-275,0 -500,225 -500,500s225,500 500,500s500,-225 500,-500s-225,-500 -500,-500z" id="svg_3" stroke="null" fill="#444444"/>
   <path d="m549.99999,700c0,-70 30,-95 55,-120c15,-10 25,-25 30,-40c10,-15 10,-30 10,-50s-5,-35 -15,-50c-10,-10 -20,-20 -40,-20c-15,0 -50,5 -50,75l-90,0l0,-20c0,-45 15,-75 40,-100c30,-15 65,-25 105,-25c50,0 85,10 110,40s40,60 40,100c0,120 -100,125 -100,210l-95,0z" id="svg_4" stroke="null" fill="#444444"/>
  </g>
 </g>

</svg>